<?xml version="1.0" standalone="no"?>
<!DOCTYPE svg PUBLIC "-//W3C//DTD SVG 20010904//EN"
 "http://www.w3.org/TR/2001/REC-SVG-20010904/DTD/svg10.dtd">
<svg version="1.0" xmlns="http://www.w3.org/2000/svg"
 width="1003.000000pt" height="1006.000000pt" viewBox="0 0 1003.000000 1006.000000"
 preserveAspectRatio="xMidYMid meet">
<metadata>
Created by potrace 1.16, written by Peter Selinger 2001-2019
</metadata>
<g transform="translate(0.000000,1006.000000) scale(0.100000,-0.100000)"
fill="#000000" stroke="none">
<path d="M4680 10054 c-19 -2 -91 -9 -160 -15 -469 -40 -995 -173 -1461 -369
-732 -308 -1391 -798 -1911 -1422 -588 -703 -978 -1578 -1107 -2483 -36 -250
-41 -341 -41 -734 0 -321 3 -416 20 -561 91 -794 352 -1520 787 -2185 600
-916 1469 -1604 2500 -1980 428 -155 891 -252 1368 -286 316 -22 795 -2 1105
47 1181 184 2262 786 3035 1688 705 823 1121 1816 1206 2878 16 202 7 800 -15
973 -71 568 -208 1054 -436 1546 -323 700 -818 1329 -1425 1814 -793 634
-1733 1005 -2749 1085 -116 9 -630 12 -716 4z m686 -214 c1023 -81 1928 -449
2729 -1111 138 -114 481 -459 601 -604 394 -477 671 -976 864 -1555 404 -1210
309 -2547 -260 -3665 -363 -713 -882 -1317 -1522 -1771 -1009 -717 -2266
-1013 -3503 -823 -893 137 -1739 533 -2425 1134 -139 123 -392 382 -511 525
-256 308 -430 572 -614 935 -255 501 -410 1025 -482 1630 -25 215 -25 827 0
1035 121 988 477 1825 1093 2565 140 169 443 470 612 610 794 655 1724 1026
2752 1098 113 8 550 6 666 -3z"/>
<path d="M4735 9783 c-133 -7 -368 -35 -529 -63 -1283 -220 -2426 -972 -3149
-2071 -568 -863 -841 -1906 -767 -2924 62 -839 323 -1601 786 -2295 699 -1046
1768 -1767 2995 -2019 478 -98 1042 -118 1544 -56 503 63 1005 214 1465 441
373 184 680 384 989 644 137 116 456 439 577 585 639 773 996 1644 1084 2650
14 157 14 585 0 750 -113 1371 -792 2597 -1895 3426 -815 613 -1828 947 -2845
937 -107 -1 -222 -3 -255 -5z m-1191 -785 c163 -25 392 -122 578 -247 138 -92
383 -304 486 -422 215 -242 353 -530 397 -823 97 -654 -251 -1387 -887 -1867
-141 -106 -266 -180 -447 -266 -249 -118 -275 -132 -385 -193 -118 -66 -299
-180 -294 -186 2 -2 52 12 111 31 291 92 549 60 894 -114 210 -105 433 -273
649 -486 172 -171 282 -302 433 -515 277 -391 414 -527 635 -631 168 -78 372
-111 565 -90 697 77 1220 458 1530 1114 32 67 64 137 70 156 l11 35 -112 110
c-110 109 -242 208 -343 258 -118 59 -323 118 -498 143 -133 19 -387 19 -502
0 -315 -51 -578 -197 -711 -395 -24 -36 -44 -60 -44 -54 0 16 76 123 118 167
225 234 671 364 1087 317 358 -41 732 -200 968 -411 69 -61 67 -62 97 61 38
157 51 254 57 417 12 332 -49 613 -190 873 -324 599 -838 944 -1442 967 -418
16 -767 -119 -941 -363 -100 -141 -156 -318 -157 -499 0 -60 5 -130 12 -154
15 -54 7 -67 -9 -14 -7 21 -14 99 -17 173 -4 121 -2 145 21 235 32 122 98 259
167 342 92 112 256 218 419 271 280 92 724 88 1085 -8 245 -65 555 -217 764
-374 379 -285 663 -732 797 -1252 57 -225 77 -388 77 -634 0 -293 -32 -495
-118 -740 -21 -58 -37 -112 -37 -120 0 -8 12 -60 26 -114 89 -345 39 -760
-131 -1101 -92 -183 -197 -328 -358 -494 -390 -402 -894 -672 -1385 -742 -130
-19 -424 -16 -560 5 -376 57 -693 180 -1135 440 -378 222 -703 353 -1010 407
-104 18 -169 22 -320 23 -210 0 -296 -9 -555 -59 -242 -47 -389 -65 -538 -65
-158 0 -241 13 -312 48 -54 27 -55 29 -127 167 -168 324 -274 671 -330 1085
-26 193 -26 745 0 940 74 556 222 945 501 1318 269 360 537 575 1141 917 393
223 558 339 717 503 158 163 259 339 315 549 23 86 26 118 27 263 0 202 -17
281 -98 445 -120 243 -306 425 -566 555 -115 58 -227 80 -401 81 -184 1 -303
-22 -436 -81 -184 -83 -327 -241 -409 -450 -13 -32 -14 -32 -9 -5 15 75 91
207 173 299 190 215 522 310 886 254z m-1779 -3623 c-148 -374 -249 -775 -284
-1129 -14 -139 -14 -492 -1 -627 52 -527 228 -1011 500 -1379 33 -44 60 -89
60 -99 0 -20 -35 -51 -57 -51 -21 0 -52 41 -124 161 -204 343 -339 723 -400
1129 -21 138 -24 189 -24 460 1 234 5 334 18 430 41 296 96 529 192 815 59
178 163 440 171 432 2 -1 -21 -65 -51 -142z m2020 -3306 c285 -36 532 -141
998 -428 471 -290 712 -405 1041 -496 141 -39 136 -46 -9 -11 -294 72 -593
208 -1035 471 -528 314 -778 407 -1135 422 -170 7 -284 -5 -545 -57 -285 -57
-353 -64 -580 -65 -273 0 -362 17 -432 83 -28 26 -35 55 -19 81 10 16 30 13
123 -23 208 -79 539 -79 970 0 236 43 409 49 623 23z"/>
<path d="M4080 8725 c0 -3 29 -35 65 -72 408 -420 416 -1053 21 -1532 -142
-172 -377 -344 -796 -584 -280 -160 -342 -197 -480 -291 -403 -273 -686 -595
-891 -1011 -130 -264 -209 -540 -256 -890 -25 -187 -25 -675 0 -870 27 -204
72 -426 122 -593 42 -142 93 -274 79 -207 -66 327 -78 441 -71 674 4 139 11
198 30 281 114 480 428 920 927 1299 240 183 441 303 785 471 248 121 404 220
570 362 381 326 647 764 746 1228 19 88 23 137 23 300 1 169 -2 209 -22 298
-80 357 -240 626 -537 901 -105 98 -315 255 -315 236z"/>
<path d="M7020 6851 c0 -4 26 -19 58 -35 195 -95 411 -279 584 -497 64 -80
173 -255 226 -361 136 -273 196 -596 172 -911 -39 -502 -250 -984 -587 -1337
-273 -288 -587 -459 -1001 -547 -112 -24 -148 -27 -312 -27 -168 0 -194 3
-285 27 -136 36 -299 118 -405 204 -113 92 -221 216 -382 440 -203 284 -278
373 -463 559 -253 253 -433 388 -680 510 -216 106 -377 148 -565 148 -209 0
-401 -61 -603 -193 -96 -63 -321 -280 -430 -416 -385 -478 -503 -940 -392
-1539 35 -190 126 -485 195 -638 41 -89 361 -102 740 -31 368 69 405 74 595
80 299 9 539 -30 825 -135 147 -54 422 -189 605 -297 440 -261 805 -399 1177
-445 127 -16 442 -8 563 14 483 88 1021 404 1360 798 209 243 339 495 406 786
26 109 37 419 20 532 -15 101 -33 180 -40 180 -3 0 -32 -51 -63 -113 -217
-428 -589 -812 -1031 -1067 -339 -194 -711 -301 -1057 -302 -170 0 -263 11
-415 49 -244 61 -464 175 -695 360 -47 37 -206 190 -355 338 -290 291 -380
371 -548 488 -116 82 -322 191 -426 226 -189 65 -373 84 -528 57 -237 -41
-437 -158 -669 -390 -234 -235 -378 -501 -459 -846 -21 -87 -24 -95 -19 -45 4
33 19 110 34 170 136 543 540 1005 997 1141 120 35 326 44 458 20 250 -47 524
-186 795 -402 47 -38 222 -204 390 -369 302 -298 399 -383 555 -485 169 -110
390 -199 590 -236 122 -23 437 -26 555 -5 227 39 433 107 636 209 723 361
1225 1007 1365 1757 27 140 37 472 20 636 -37 357 -158 733 -330 1020 -99 166
-184 274 -340 430 -159 159 -295 258 -486 356 -143 73 -355 154 -355 134z"/>
</g>
</svg>
